<svg width="350" height="230" viewBox="0 0 350 230" fill="none" xmlns="http://www.w3.org/2000/svg">
<rect x="20" y="15" width="310" height="200" rx="8" fill="white" stroke="#E5E7EB" stroke-width="1"/>
<rect x="20" y="15" width="310" height="38" rx="8" fill="#F3F4F6"/>
<rect x="20" y="44" width="310" height="1" fill="#E5E7EB"/>
<rect x="36" y="26" width="60" height="7" rx="3" fill="#9CA3AF"/>
<rect x="290" y="23" width="28" height="14" rx="4" fill="#EB4F27"/>
<rect x="36" y="63" width="200" height="8" rx="4" fill="#9CA3AF"/>
<rect x="36" y="76" width="140" height="6" rx="3" fill="#E5E7EB"/>
<rect x="305" y="60" width="18" height="18" rx="4" fill="#E5E7EB"/>
<line x1="36" y1="95" x2="314" y2="95" stroke="#E5E7EB" stroke-width="0.5"/>
<rect x="36" y="104" width="180" height="8" rx="4" fill="#9CA3AF"/>
<rect x="36" y="117" width="110" height="6" rx="3" fill="#E5E7EB"/>
<rect x="305" y="101" width="18" height="18" rx="4" fill="#EB4F27"/>
<line x1="36" y1="136" x2="314" y2="136" stroke="#E5E7EB" stroke-width="0.5"/>
<rect x="36" y="145" width="160" height="8" rx="4" fill="#9CA3AF"/>
<rect x="36" y="158" width="130" height="6" rx="3" fill="#E5E7EB"/>
<rect x="305" y="142" width="18" height="18" rx="4" fill="#E5E7EB"/>
<line x1="36" y1="177" x2="314" y2="177" stroke="#E5E7EB" stroke-width="0.5"/>
<rect x="36" y="186" width="150" height="8" rx="4" fill="#9CA3AF"/>
<rect x="36" y="199" width="100" height="6" rx="3" fill="#E5E7EB"/>
<rect x="305" y="183" width="18" height="18" rx="4" fill="#E5E7EB"/>
</svg>