<svg width="350" height="230" viewBox="0 0 350 230" fill="none" xmlns="http://www.w3.org/2000/svg">
<rect width="350" height="230" fill="#111928"/><rect x="20" y="15" width="310" height="200" rx="8" fill="#374151" stroke="#4B5563" stroke-width="1"/>
<rect x="20" y="15" width="310" height="44" rx="8" fill="#1F2937"/>
<rect x="20" y="44" width="310" height="1" fill="#4B5563"/>
<circle cx="46" cy="37" r="9" stroke="#9CA3AF" stroke-width="2" fill="none"/>
<line x1="52" y1="44" x2="57" y2="49" stroke="#9CA3AF" stroke-width="2" stroke-linecap="round"/>
<rect x="62" y="33" width="120" height="8" rx="4" fill="#6B7280"/>
<rect x="294" y="30" width="24" height="14" rx="3" fill="#4B5563"/>
<rect x="20" y="58" width="310" height="36" rx="0" fill="#A82200"/>
<rect x="38" y="69" width="14" height="14" rx="3" fill="#EB4F27"/>
<rect x="60" y="71" width="80" height="8" rx="4" fill="#EB4F27"/>
<rect x="272" y="71" width="40" height="8" rx="4" fill="#6B7280"/>
<rect x="38" y="109" width="14" height="14" rx="3" fill="#4B5563"/>
<rect x="60" y="113" width="100" height="8" rx="4" fill="#9CA3AF"/>
<rect x="272" y="113" width="40" height="8" rx="4" fill="#4B5563"/>
<rect x="38" y="143" width="14" height="14" rx="3" fill="#4B5563"/>
<rect x="60" y="147" width="70" height="8" rx="4" fill="#9CA3AF"/>
<rect x="272" y="147" width="40" height="8" rx="4" fill="#4B5563"/>
<rect x="38" y="177" width="14" height="14" rx="3" fill="#4B5563"/>
<rect x="60" y="181" width="90" height="8" rx="4" fill="#9CA3AF"/>
<rect x="272" y="181" width="40" height="8" rx="4" fill="#4B5563"/>
</svg>