<svg width="410" height="240" viewBox="0 0 410 240" fill="none" xmlns="http://www.w3.org/2000/svg">
<rect x="8" y="12" width="120" height="216" rx="6" fill="#F3F4F6" stroke="#E5E7EB" stroke-width="0.5"/>
<rect x="16" y="20" width="60" height="8" rx="4" fill="#9CA3AF"/>
<rect x="16" y="38" width="104" height="50" rx="5" fill="white" stroke="#E5E7EB" stroke-width="0.5"/>
<rect x="24" y="48" width="70" height="6" rx="3" fill="#9CA3AF"/>
<rect x="24" y="59" width="85" height="5" rx="2" fill="#E5E7EB"/>
<rect x="24" y="67" width="65" height="5" rx="2" fill="#E5E7EB"/>
<rect x="16" y="96" width="104" height="50" rx="5" fill="white" stroke="#E5E7EB" stroke-width="0.5"/>
<rect x="24" y="106" width="55" height="6" rx="3" fill="#9CA3AF"/>
<rect x="24" y="117" width="80" height="5" rx="2" fill="#E5E7EB"/>
<rect x="24" y="125" width="60" height="5" rx="2" fill="#E5E7EB"/>
<rect x="145" y="12" width="120" height="216" rx="6" fill="#F3F4F6" stroke="#E5E7EB" stroke-width="0.5"/>
<rect x="153" y="20" width="80" height="8" rx="4" fill="#EB4F27"/>
<rect x="153" y="38" width="104" height="50" rx="5" fill="#FFF1EE" stroke="#EB4F27" stroke-width="0.5"/>
<rect x="161" y="48" width="70" height="6" rx="3" fill="#EB4F27"/>
<rect x="161" y="59" width="85" height="5" rx="2" fill="#E5E7EB"/>
<rect x="161" y="67" width="50" height="5" rx="2" fill="#E5E7EB"/>
<rect x="153" y="96" width="104" height="50" rx="5" fill="#FFF1EE" stroke="#EB4F27" stroke-width="0.5"/>
<rect x="161" y="106" width="60" height="6" rx="3" fill="#EB4F27"/>
<rect x="161" y="117" width="80" height="5" rx="2" fill="#E5E7EB"/>
<rect x="161" y="125" width="70" height="5" rx="2" fill="#E5E7EB"/>
<rect x="282" y="12" width="120" height="216" rx="6" fill="#F3F4F6" stroke="#E5E7EB" stroke-width="0.5"/>
<rect x="290" y="20" width="50" height="8" rx="4" fill="#9CA3AF"/>
<rect x="290" y="38" width="104" height="50" rx="5" fill="white" stroke="#E5E7EB" stroke-width="0.5"/>
<rect x="298" y="48" width="65" height="6" rx="3" fill="#9CA3AF"/>
<rect x="298" y="59" width="80" height="5" rx="2" fill="#E5E7EB"/>
<rect x="298" y="67" width="75" height="5" rx="2" fill="#E5E7EB"/>
<rect x="290" y="96" width="104" height="50" rx="5" fill="white" stroke="#E5E7EB" stroke-width="0.5"/>
<rect x="298" y="106" width="75" height="6" rx="3" fill="#9CA3AF"/>
<rect x="298" y="117" width="60" height="5" rx="2" fill="#E5E7EB"/>
<rect x="298" y="125" width="85" height="5" rx="2" fill="#E5E7EB"/>
</svg>