<svg width="410" height="240" viewBox="0 0 410 240" fill="none" xmlns="http://www.w3.org/2000/svg">
<rect width="410" height="240" fill="#111928"/><rect x="8" y="12" width="90" height="216" rx="4" fill="#1F2937" stroke="#4B5563" stroke-width="0.5"/>
<rect x="18" y="24" width="50" height="7" rx="3" fill="#9CA3AF"/>
<rect x="10" y="40" width="88" height="26" rx="3" fill="#A82200"/>
<rect x="18" y="49" width="55" height="7" rx="3" fill="#EB4F27"/>
<rect x="18" y="76" width="50" height="7" rx="3" fill="#9CA3AF"/>
<rect x="18" y="97" width="60" height="7" rx="3" fill="#9CA3AF"/>
<rect x="18" y="118" width="45" height="7" rx="3" fill="#9CA3AF"/>
<rect x="18" y="139" width="55" height="7" rx="3" fill="#9CA3AF"/>
<rect x="18" y="160" width="40" height="7" rx="3" fill="#9CA3AF"/>
<rect x="112" y="12" width="290" height="216" rx="4" fill="#374151" stroke="#4B5563" stroke-width="0.5"/>
<rect x="124" y="24" width="100" height="10" rx="4" fill="#9CA3AF"/>
<rect x="124" y="42" width="255" height="7" rx="3" fill="#4B5563"/>
<rect x="124" y="54" width="240" height="7" rx="3" fill="#4B5563"/>
<rect x="124" y="66" width="220" height="7" rx="3" fill="#4B5563"/>
<rect x="124" y="90" width="80" height="9" rx="4" fill="#9CA3AF"/>
<rect x="124" y="106" width="255" height="7" rx="3" fill="#4B5563"/>
<rect x="124" y="118" width="230" height="7" rx="3" fill="#4B5563"/>
<rect x="124" y="142" width="90" height="9" rx="4" fill="#9CA3AF"/>
<rect x="124" y="158" width="255" height="7" rx="3" fill="#4B5563"/>
<rect x="124" y="170" width="200" height="7" rx="3" fill="#4B5563"/>
<rect x="124" y="182" width="240" height="7" rx="3" fill="#4B5563"/>
</svg>