<svg width="410" height="240" viewBox="0 0 410 240" fill="none" xmlns="http://www.w3.org/2000/svg">
<rect width="410" height="240" fill="#111928"/><rect x="8" y="12" width="185" height="216" rx="6" fill="#374151" stroke="#4B5563" stroke-width="0.5"/>
<rect x="20" y="24" width="70" height="9" rx="4" fill="#9CA3AF"/>
<rect x="20" y="42" width="160" height="7" rx="3" fill="#4B5563"/>
<rect x="20" y="54" width="145" height="7" rx="3" fill="#4B5563"/>
<rect x="20" y="66" width="110" height="7" rx="3" fill="#4B5563"/>
<rect x="20" y="88" width="80" height="9" rx="4" fill="#9CA3AF"/>
<rect x="20" y="106" width="160" height="7" rx="3" fill="#4B5563"/>
<rect x="20" y="118" width="130" height="7" rx="3" fill="#4B5563"/>
<rect x="20" y="140" width="50" height="20" rx="4" fill="#EB4F27"/>
<rect x="78" y="140" width="60" height="20" rx="4" fill="#4B5563"/>
<rect x="197" y="12" width="6" height="216" rx="3" fill="#4B5563"/>
<circle cx="200" cy="120" r="6" fill="#9CA3AF"/>
<rect x="217" y="12" width="185" height="216" rx="6" fill="#374151" stroke="#4B5563" stroke-width="0.5"/>
<rect x="229" y="24" width="80" height="9" rx="4" fill="#9CA3AF"/>
<rect x="229" y="42" width="160" height="7" rx="3" fill="#4B5563"/>
<rect x="229" y="54" width="145" height="7" rx="3" fill="#4B5563"/>
<rect x="229" y="66" width="130" height="7" rx="3" fill="#4B5563"/>
<rect x="229" y="88" width="60" height="9" rx="4" fill="#9CA3AF"/>
<rect x="229" y="106" width="155" height="7" rx="3" fill="#4B5563"/>
<rect x="229" y="118" width="115" height="7" rx="3" fill="#4B5563"/>
<rect x="229" y="130" width="140" height="7" rx="3" fill="#4B5563"/>
</svg>