<svg width="410" height="240" viewBox="0 0 410 240" fill="none" xmlns="http://www.w3.org/2000/svg">
<rect x="8" y="12" width="116" height="90" rx="6" fill="white" stroke="#E5E7EB" stroke-width="0.5"/>
<rect x="18" y="22" width="96" height="38" rx="4" fill="#EB4F27"/>
<rect x="18" y="68" width="70" height="7" rx="3" fill="#9CA3AF"/>
<rect x="18" y="80" width="90" height="5" rx="2" fill="#E5E7EB"/>
<rect x="8" y="110" width="116" height="70" rx="6" fill="white" stroke="#E5E7EB" stroke-width="0.5"/>
<rect x="18" y="120" width="96" height="28" rx="4" fill="#F3F4F6"/>
<rect x="18" y="156" width="70" height="7" rx="3" fill="#9CA3AF"/>
<rect x="18" y="168" width="90" height="5" rx="2" fill="#E5E7EB"/>
<rect x="8" y="188" width="116" height="44" rx="6" fill="white" stroke="#E5E7EB" stroke-width="0.5"/>
<rect x="18" y="198" width="70" height="7" rx="3" fill="#9CA3AF"/>
<rect x="18" y="210" width="90" height="5" rx="2" fill="#E5E7EB"/>
<rect x="147" y="12" width="116" height="60" rx="6" fill="white" stroke="#E5E7EB" stroke-width="0.5"/>
<rect x="157" y="22" width="96" height="22" rx="4" fill="#F3F4F6"/>
<rect x="157" y="50" width="70" height="7" rx="3" fill="#9CA3AF"/>
<rect x="147" y="80" width="116" height="100" rx="6" fill="white" stroke="#E5E7EB" stroke-width="0.5"/>
<rect x="157" y="90" width="96" height="48" rx="4" fill="#EB4F27"/>
<rect x="157" y="146" width="70" height="7" rx="3" fill="#9CA3AF"/>
<rect x="157" y="158" width="90" height="5" rx="2" fill="#E5E7EB"/>
<rect x="157" y="168" width="70" height="5" rx="2" fill="#E5E7EB"/>
<rect x="147" y="188" width="116" height="44" rx="6" fill="white" stroke="#E5E7EB" stroke-width="0.5"/>
<rect x="157" y="198" width="70" height="7" rx="3" fill="#9CA3AF"/>
<rect x="157" y="210" width="90" height="5" rx="2" fill="#E5E7EB"/>
<rect x="286" y="12" width="116" height="80" rx="6" fill="white" stroke="#E5E7EB" stroke-width="0.5"/>
<rect x="296" y="22" width="96" height="28" rx="4" fill="#F3F4F6"/>
<rect x="296" y="58" width="70" height="7" rx="3" fill="#9CA3AF"/>
<rect x="296" y="70" width="90" height="5" rx="2" fill="#E5E7EB"/>
<rect x="286" y="100" width="116" height="55" rx="6" fill="white" stroke="#E5E7EB" stroke-width="0.5"/>
<rect x="296" y="110" width="96" height="18" rx="4" fill="#EB4F27"/>
<rect x="296" y="135" width="70" height="7" rx="3" fill="#9CA3AF"/>
<rect x="286" y="163" width="116" height="69" rx="6" fill="white" stroke="#E5E7EB" stroke-width="0.5"/>
<rect x="296" y="173" width="96" height="30" rx="4" fill="#F3F4F6"/>
<rect x="296" y="210" width="70" height="7" rx="3" fill="#9CA3AF"/>
</svg>