<svg width="410" height="240" viewBox="0 0 410 240" fill="none" xmlns="http://www.w3.org/2000/svg">
<g filter="url(#filter0_dd_4988_711)">
<path d="M131 60C131 55.5817 134.582 52 139 52H239C243.418 52 247 55.5817 247 60V79C247 83.4183 243.418 87 239 87H139C134.582 87 131 83.4183 131 79V60Z" fill="#374151"/>
<path d="M131.5 60C131.5 55.8579 134.858 52.5 139 52.5H239C243.142 52.5 246.5 55.8579 246.5 60V79C246.5 83.1421 243.142 86.5 239 86.5H139C134.858 86.5 131.5 83.1421 131.5 79V60Z" stroke="#4B5563"/>
<rect x="145" y="66.5" width="24" height="6" rx="2" fill="#9CA3AF"/>
<path d="M176.653 73.5682C176.443 73.5682 176.263 73.4929 176.112 73.3423C175.962 73.1918 175.886 73.0114 175.886 72.8011C175.886 72.5909 175.962 72.4105 176.112 72.2599C176.263 72.1094 176.443 72.0341 176.653 72.0341C176.864 72.0341 177.044 72.1094 177.195 72.2599C177.345 72.4105 177.42 72.5909 177.42 72.8011C177.42 72.9403 177.385 73.0682 177.314 73.1847C177.246 73.3011 177.153 73.3949 177.037 73.4659C176.923 73.5341 176.795 73.5682 176.653 73.5682ZM176.653 68.7102C176.443 68.7102 176.263 68.6349 176.112 68.4844C175.962 68.3338 175.886 68.1534 175.886 67.9432C175.886 67.733 175.962 67.5526 176.112 67.402C176.263 67.2514 176.443 67.1761 176.653 67.1761C176.864 67.1761 177.044 67.2514 177.195 67.402C177.345 67.5526 177.42 67.733 177.42 67.9432C177.42 68.0824 177.385 68.2102 177.314 68.3267C177.246 68.4432 177.153 68.5369 177.037 68.608C176.923 68.6761 176.795 68.7102 176.653 68.7102Z" fill="#A1A1AA"/>
<rect x="185" y="66.5" width="24" height="6" rx="2" fill="#9CA3AF"/>
<path d="M225.9 69.5002V69.5003C225.9 69.792 226.016 70.0717 226.222 70.2779C226.222 70.2779 226.222 70.278 226.222 70.278L227.919 71.9753L227.919 71.9753C228.021 72.0775 228.142 72.1586 228.276 72.2139C228.409 72.2692 228.553 72.2976 228.697 72.2976C228.842 72.2976 228.985 72.2692 229.118 72.2139C229.252 72.1586 229.373 72.0775 229.475 71.9753C229.577 71.8732 229.658 71.7519 229.714 71.6184C229.769 71.4849 229.797 71.3418 229.797 71.1973C229.797 71.0528 229.769 70.9097 229.714 70.7762C229.658 70.6427 229.577 70.5214 229.475 70.4192L229.475 70.4192L228.1 69.0446V67.1002C228.1 66.8085 227.984 66.5287 227.778 66.3224C227.571 66.1161 227.292 66.0002 227 66.0002C226.708 66.0002 226.428 66.1161 226.222 66.3224C226.016 66.5287 225.9 66.8085 225.9 67.1002V69.5002ZM230.041 72.5408C229.234 73.3472 228.14 73.8002 227 73.8002C225.86 73.8002 224.766 73.3472 223.959 72.5408C223.153 71.7343 222.7 70.6406 222.7 69.5002C222.7 68.3598 223.153 67.266 223.959 66.4596C224.766 65.6532 225.86 65.2002 227 65.2002C228.14 65.2002 229.234 65.6532 230.041 66.4596C230.847 67.266 231.3 68.3598 231.3 69.5002C231.3 70.6406 230.847 71.7343 230.041 72.5408Z" fill="#9CA3AF" stroke="#9CA3AF"/>
</g>
<g filter="url(#filter1_dd_4988_711)">
<path d="M131.5 111C131.5 106.858 134.858 103.5 139 103.5H210.5V137.5H139C134.858 137.5 131.5 134.142 131.5 130V111Z" fill="#374151"/>
<path d="M131.5 111C131.5 106.858 134.858 103.5 139 103.5H210.5V137.5H139C134.858 137.5 131.5 134.142 131.5 130V111Z" stroke="#4B5563"/>
<rect x="145" y="117.5" width="18" height="6" rx="2" fill="#9CA3AF"/>
<path d="M170.653 124.568C170.443 124.568 170.263 124.493 170.112 124.342C169.962 124.192 169.886 124.011 169.886 123.801C169.886 123.591 169.962 123.411 170.112 123.26C170.263 123.109 170.443 123.034 170.653 123.034C170.864 123.034 171.044 123.109 171.195 123.26C171.345 123.411 171.42 123.591 171.42 123.801C171.42 123.94 171.385 124.068 171.314 124.185C171.246 124.301 171.153 124.395 171.037 124.466C170.923 124.534 170.795 124.568 170.653 124.568ZM170.653 119.71C170.443 119.71 170.263 119.635 170.112 119.484C169.962 119.334 169.886 119.153 169.886 118.943C169.886 118.733 169.962 118.553 170.112 118.402C170.263 118.251 170.443 118.176 170.653 118.176C170.864 118.176 171.044 118.251 171.195 118.402C171.345 118.553 171.42 118.733 171.42 118.943C171.42 119.082 171.385 119.21 171.314 119.327C171.246 119.443 171.153 119.537 171.037 119.608C170.923 119.676 170.795 119.71 170.653 119.71Z" fill="#A1A1AA"/>
<rect x="179" y="117.5" width="18" height="6" rx="2" fill="#9CA3AF"/>
<path d="M210.5 103.5H274.01C278.152 103.5 281.51 106.858 281.51 111V130C281.51 134.142 278.152 137.5 274.01 137.5H210.5V103.5Z" fill="#374151"/>
<path d="M210.5 103.5H274.01C278.152 103.5 281.51 106.858 281.51 111V130C281.51 134.142 278.152 137.5 274.01 137.5H210.5V103.5Z" stroke="#4B5563"/>
<rect x="224" y="117.5" width="28" height="6" rx="2" fill="#9CA3AF"/>
<path d="M264 121.681L263.646 121.327L261.012 118.693C261.012 118.693 261.012 118.693 261.012 118.693C260.956 118.637 260.879 118.605 260.8 118.605C260.72 118.605 260.644 118.637 260.588 118.693C260.588 118.693 260.588 118.693 260.588 118.693M264 121.681L260.588 118.693M264 121.681L264.353 121.327L266.988 118.693L266.988 118.693L266.994 118.687C267.022 118.658 267.055 118.635 267.091 118.62C267.128 118.604 267.167 118.596 267.207 118.595C267.247 118.595 267.286 118.602 267.323 118.618C267.36 118.633 267.394 118.655 267.422 118.683C267.45 118.711 267.472 118.745 267.487 118.782L267.95 118.592L267.487 118.782C267.502 118.818 267.51 118.858 267.51 118.898C267.509 118.938 267.501 118.977 267.485 119.014C267.47 119.05 267.447 119.083 267.418 119.111L267.418 119.111L267.412 119.117L264.212 122.317C264.212 122.317 264.212 122.317 264.212 122.317C264.156 122.373 264.079 122.405 264 122.405C263.92 122.405 263.844 122.373 263.788 122.317C263.788 122.317 263.788 122.317 263.788 122.317L260.588 119.117M264 121.681L260.588 119.117M260.588 118.693C260.532 118.749 260.5 118.826 260.5 118.905C260.5 118.985 260.532 119.061 260.588 119.117M260.588 118.693L260.588 119.117M260.588 119.117L260.588 119.117M260.588 119.117L260.588 119.117" fill="#9CA3AF" stroke="#9CA3AF"/>
</g>
<g filter="url(#filter2_dd_4988_711)">
<path d="M131.5 162C131.5 157.858 134.858 154.5 139 154.5H210.5V188.5H139C134.858 188.5 131.5 185.142 131.5 181V162Z" fill="#374151"/>
<path d="M131.5 162C131.5 157.858 134.858 154.5 139 154.5H210.5V188.5H139C134.858 188.5 131.5 185.142 131.5 181V162Z" stroke="#4B5563"/>
<rect x="145" y="168.5" width="18" height="6" rx="2" fill="#9CA3AF"/>
<path d="M170.653 175.568C170.443 175.568 170.263 175.493 170.112 175.342C169.962 175.192 169.886 175.011 169.886 174.801C169.886 174.591 169.962 174.411 170.112 174.26C170.263 174.109 170.443 174.034 170.653 174.034C170.864 174.034 171.044 174.109 171.195 174.26C171.345 174.411 171.42 174.591 171.42 174.801C171.42 174.94 171.385 175.068 171.314 175.185C171.246 175.301 171.153 175.395 171.037 175.466C170.923 175.534 170.795 175.568 170.653 175.568ZM170.653 170.71C170.443 170.71 170.263 170.635 170.112 170.484C169.962 170.334 169.886 170.153 169.886 169.943C169.886 169.733 169.962 169.553 170.112 169.402C170.263 169.251 170.443 169.176 170.653 169.176C170.864 169.176 171.044 169.251 171.195 169.402C171.345 169.553 171.42 169.733 171.42 169.943C171.42 170.082 171.385 170.21 171.314 170.327C171.246 170.443 171.153 170.537 171.037 170.608C170.923 170.676 170.795 170.71 170.653 170.71Z" fill="#A1A1AA"/>
<rect x="179" y="168.5" width="18" height="6" rx="2" fill="#9CA3AF"/>
<path d="M210.5 154.5H242C246.142 154.5 249.5 157.858 249.5 162V181C249.5 185.142 246.142 188.5 242 188.5H210.5V154.5Z" fill="#4B5563"/>
<path d="M210.5 154.5H242C246.142 154.5 249.5 157.858 249.5 162V181C249.5 185.142 246.142 188.5 242 188.5H210.5V154.5Z" stroke="#4B5563"/>
<path d="M228.9 171.5V171.5C228.9 171.792 229.016 172.072 229.222 172.278C229.222 172.278 229.222 172.278 229.222 172.278L230.919 173.975L230.919 173.975C231.021 174.078 231.142 174.159 231.276 174.214C231.409 174.269 231.553 174.298 231.697 174.298C231.842 174.298 231.985 174.269 232.118 174.214C232.252 174.159 232.373 174.078 232.475 173.975C232.577 173.873 232.658 173.752 232.714 173.618C232.769 173.485 232.797 173.342 232.797 173.197C232.797 173.053 232.769 172.91 232.714 172.776C232.658 172.643 232.577 172.521 232.475 172.419L232.475 172.419L231.1 171.045V169.1C231.1 168.808 230.984 168.529 230.778 168.322C230.571 168.116 230.292 168 230 168C229.708 168 229.428 168.116 229.222 168.322C229.016 168.529 228.9 168.808 228.9 169.1V171.5ZM233.041 174.541C232.234 175.347 231.14 175.8 230 175.8C228.86 175.8 227.766 175.347 226.959 174.541C226.153 173.734 225.7 172.641 225.7 171.5C225.7 170.36 226.153 169.266 226.959 168.46C227.766 167.653 228.86 167.2 230 167.2C231.14 167.2 232.234 167.653 233.041 168.46C233.847 169.266 234.3 170.36 234.3 171.5C234.3 172.641 233.847 173.734 233.041 174.541Z" fill="#9CA3AF" stroke="#9CA3AF"/>
</g>
<defs>
<filter id="filter0_dd_4988_711" x="125" y="50" width="128" height="47" filterUnits="userSpaceOnUse" color-interpolation-filters="sRGB">
<feFlood flood-opacity="0" result="BackgroundImageFix"/>
<feColorMatrix in="SourceAlpha" type="matrix" values="0 0 0 0 0 0 0 0 0 0 0 0 0 0 0 0 0 0 127 0" result="hardAlpha"/>
<feOffset dy="4"/>
<feGaussianBlur stdDeviation="3"/>
<feColorMatrix type="matrix" values="0 0 0 0 0 0 0 0 0 0 0 0 0 0 0 0 0 0 0.1 0"/>
<feBlend mode="normal" in2="BackgroundImageFix" result="effect1_dropShadow_4988_711"/>
<feColorMatrix in="SourceAlpha" type="matrix" values="0 0 0 0 0 0 0 0 0 0 0 0 0 0 0 0 0 0 127 0" result="hardAlpha"/>
<feOffset dy="2"/>
<feGaussianBlur stdDeviation="2"/>
<feColorMatrix type="matrix" values="0 0 0 0 0 0 0 0 0 0 0 0 0 0 0 0 0 0 0.06 0"/>
<feBlend mode="normal" in2="effect1_dropShadow_4988_711" result="effect2_dropShadow_4988_711"/>
<feBlend mode="normal" in="SourceGraphic" in2="effect2_dropShadow_4988_711" result="shape"/>
</filter>
<filter id="filter1_dd_4988_711" x="125" y="101" width="163.01" height="47" filterUnits="userSpaceOnUse" color-interpolation-filters="sRGB">
<feFlood flood-opacity="0" result="BackgroundImageFix"/>
<feColorMatrix in="SourceAlpha" type="matrix" values="0 0 0 0 0 0 0 0 0 0 0 0 0 0 0 0 0 0 127 0" result="hardAlpha"/>
<feOffset dy="4"/>
<feGaussianBlur stdDeviation="3"/>
<feColorMatrix type="matrix" values="0 0 0 0 0 0 0 0 0 0 0 0 0 0 0 0 0 0 0.1 0"/>
<feBlend mode="normal" in2="BackgroundImageFix" result="effect1_dropShadow_4988_711"/>
<feColorMatrix in="SourceAlpha" type="matrix" values="0 0 0 0 0 0 0 0 0 0 0 0 0 0 0 0 0 0 127 0" result="hardAlpha"/>
<feOffset dy="2"/>
<feGaussianBlur stdDeviation="2"/>
<feColorMatrix type="matrix" values="0 0 0 0 0 0 0 0 0 0 0 0 0 0 0 0 0 0 0.06 0"/>
<feBlend mode="normal" in2="effect1_dropShadow_4988_711" result="effect2_dropShadow_4988_711"/>
<feBlend mode="normal" in="SourceGraphic" in2="effect2_dropShadow_4988_711" result="shape"/>
</filter>
<filter id="filter2_dd_4988_711" x="125" y="152" width="131" height="47" filterUnits="userSpaceOnUse" color-interpolation-filters="sRGB">
<feFlood flood-opacity="0" result="BackgroundImageFix"/>
<feColorMatrix in="SourceAlpha" type="matrix" values="0 0 0 0 0 0 0 0 0 0 0 0 0 0 0 0 0 0 127 0" result="hardAlpha"/>
<feOffset dy="4"/>
<feGaussianBlur stdDeviation="3"/>
<feColorMatrix type="matrix" values="0 0 0 0 0 0 0 0 0 0 0 0 0 0 0 0 0 0 0.1 0"/>
<feBlend mode="normal" in2="BackgroundImageFix" result="effect1_dropShadow_4988_711"/>
<feColorMatrix in="SourceAlpha" type="matrix" values="0 0 0 0 0 0 0 0 0 0 0 0 0 0 0 0 0 0 127 0" result="hardAlpha"/>
<feOffset dy="2"/>
<feGaussianBlur stdDeviation="2"/>
<feColorMatrix type="matrix" values="0 0 0 0 0 0 0 0 0 0 0 0 0 0 0 0 0 0 0.06 0"/>
<feBlend mode="normal" in2="effect1_dropShadow_4988_711" result="effect2_dropShadow_4988_711"/>
<feBlend mode="normal" in="SourceGraphic" in2="effect2_dropShadow_4988_711" result="shape"/>
</filter>
</defs>
</svg>
